<svg version="1.2" xmlns="http://www.w3.org/2000/svg" viewBox="0 0 648 664" width="648" height="664">
	<title>logo</title>
	<style>
		.s0 { fill: #000000 } 
		.s1 { fill: #ffffff } 
	</style>
	<g id="Background">
		<path id="Path 0" class="s0" d="m0 332v332h648v-664h-648z"/>
		<path id="Path 1" class="s1" d="m288 72.1c-6.3 0.4-14.9 1.3-19 1.9-4.1 0.7-12 2-17.5 3-5.5 1.1-12.5 2.5-15.5 3.3-3 0.8-8.9 2.5-13 3.7-4.1 1.2-11.8 3.9-17 6-5.2 2-12.4 5.1-16 6.8-3.6 1.6-11 5.6-16.5 8.7-5.5 3.2-15.2 9.6-21.5 14.4-6.3 4.7-16.5 13.5-22.5 19.6-6.1 6-14.9 16.2-19.6 22.5-4.7 6.3-10.6 14.9-13.1 19-2.5 4.1-6.5 11.6-9 16.5-2.5 4.9-6.2 13.2-8.2 18.3-2 5-4.9 13.1-6.5 18-1.6 4.8-4 13.6-5.4 19.7-1.4 6.1-3.3 14.8-4.1 19.5-0.8 4.7-2.1 12.6-2.8 17.5-0.9 6.1-1.3 21.1-1.3 47 0 26.2 0.4 40.8 1.3 47 0.7 4.9 2 13.3 2.9 18.5 0.8 5.2 3 15.8 4.8 23.5 1.9 7.7 5 18.7 7 24.5 2 5.8 4.4 12.1 5.2 14 0.9 1.9 3.6 7.8 6 13 2.5 5.2 6.8 13.3 9.6 18 2.8 4.7 6.7 10.8 8.6 13.5 2 2.8 6 8.1 9 12 3 3.9 9.4 10.8 14.1 15.5 4.7 4.7 11.7 11.1 15.5 14.1 3.8 3.1 11.1 8.3 16 11.6 4.9 3.3 12.8 8.1 17.5 10.6 4.7 2.5 13 6.4 18.5 8.7 5.5 2.4 13.8 5.5 18.5 7.1 4.7 1.5 13 3.8 18.5 5.2 5.5 1.4 14.3 3.2 19.5 4.1 5.2 0.9 12.2 2.1 15.5 2.7 3.3 0.6 15.4 1.4 27 1.9 11.6 0.5 29.8 0.5 40.5 0 10.7-0.5 22.4-1.4 26-2 3.6-0.6 10.3-1.8 15-2.7 4.7-0.8 13.9-2.9 20.5-4.5 6.6-1.7 17.6-5.2 24.5-7.8 6.9-2.6 17.7-7.3 24-10.6 6.3-3.2 16.5-9.2 22.7-13.4 6.1-4.1 16-11.8 21.9-17 6-5.2 15-14.5 20.2-20.5 5.1-6 12.5-15.7 16.3-21.5 3.9-5.8 10.3-17.2 14.4-25.5 4-8.2 9.5-20.9 12-28 2.6-7.1 6.2-19.1 8-26.5 1.9-7.4 4.3-18.9 5.4-25.5 1.1-6.6 2.5-15.6 3.2-20 0.7-4.5 1.4-22.5 1.6-41 0.4-26.8 0.2-35.7-1.2-47.5-0.9-8-2.5-19-3.6-24.5-1.1-5.5-2.5-12.9-3.3-16.5-0.8-3.6-3.1-11.7-5.1-18-2.1-6.3-5.5-15.8-7.7-21-2.2-5.2-5.8-13.1-8-17.5-2.2-4.4-6.4-11.6-9.1-16-2.8-4.4-7.6-11.4-10.6-15.5-3.1-4.1-10.7-12.8-17.1-19.3-6.3-6.6-15.8-15.1-21-19.1-5.2-4-13.6-9.7-18.5-12.8-4.9-3-11.7-6.9-15-8.5-3.3-1.7-11.4-5.4-18-8.1-6.6-2.8-17.6-6.7-24.5-8.7-6.9-2-18.1-4.7-25-6-6.9-1.3-15.6-2.8-19.5-3.4-3.9-0.6-14.2-1.5-23-2.1-8.8-0.5-21.6-0.9-28.5-0.9-6.9 0.1-17.7 0.5-24 1z"/>
		<path id="Path 2" class="s0" d="m294.5 112.9c-2.8 0.5-8.5 1.8-12.8 3-4.2 1.1-10.3 3.3-13.4 4.7-3.2 1.4-8.5 4.2-11.8 6.2-3.3 1.9-8.5 5.6-11.5 8.1-3 2.5-6 5-6.5 5.6-0.6 0.6-4 4.2-7.5 8-3.5 3.8-8.7 10.7-11.7 15.2-2.9 4.6-7.3 12.2-9.7 17-2.4 4.9-6 13.3-8.1 18.8-2 5.5-4.5 12.7-5.5 16-1.1 3.3-2.8 9.8-3.9 14.5-1 4.7-2.4 11-3 14-0.6 3-1.7 9.3-2.6 14-0.8 4.7-2 14.4-2.7 21.5-0.6 7.1-1.2 15.5-1.2 18.5l-0.1 5.5c257.5 0.5 264.5 0.4 264.8-1.3 0.2-0.9 0-5.8-0.5-10.7-0.5-4.9-1.6-14.6-2.4-21.5-0.9-6.9-2.7-18.1-4.1-25-1.3-6.9-4-17.9-5.9-24.5-2-6.6-5.6-16.9-8.1-23-2.5-6.1-6.3-14.4-8.6-18.5-2.2-4.1-6.6-11.3-9.8-16-3.2-4.7-9.1-11.9-13.1-16.1-4-4.2-10.7-10.2-14.8-13.4-4.1-3.1-12-7.9-17.5-10.6-5.5-2.6-14.5-6-20-7.5-8.4-2.2-12.6-2.6-26.5-2.9-9.1-0.2-18.8 0-21.5 0.4zm-111 246.8c-1.9 0.5-2 1-1.2 9.2 0.4 4.7 1.4 15.3 2.2 23.6 0.8 8.2 2.1 19.3 2.9 24.5 0.8 5.2 2.2 12.9 3 17 0.9 4.1 3.1 12.7 4.8 19 1.7 6.3 4.6 15.8 6.5 21 1.9 5.2 5.8 14.2 8.7 20 2.8 5.8 7.4 13.9 10.1 18 2.7 4.1 8.6 11.3 13 15.9 4.4 4.5 10.9 10.5 14.5 13.1 3.6 2.6 10.1 6.6 14.5 8.8 4.4 2.2 11.6 5.1 16 6.5 4.4 1.3 11.4 3.1 15.5 3.8 4.2 0.7 13.9 1.3 22 1.3 8-0.1 18.1-0.7 22.5-1.4 4.4-0.7 11.6-2.3 16-3.7 4.4-1.3 11.1-3.9 15-5.7 3.9-1.9 9.5-5.1 12.5-7.1 3-2.1 9.5-7.6 14.3-12.4 4.8-4.7 10.9-11.8 13.4-15.6 2.6-3.9 6.9-11.1 9.5-16 2.6-5 6.5-13.7 8.7-19.5 2.1-5.8 5.3-15.9 7-22.5 1.8-6.6 4.2-18.1 5.5-25.5 1.3-7.4 2.9-17.1 3.5-21.5 0.6-4.4 1.5-14.5 2.1-22.5 0.5-8 1.3-17 1.6-20 0.5-4.3 0.3-5.9-1-7.3-1.5-1.6-9-1.7-131.4-1.6-71.3 0.1-130.6 0.4-131.7 0.6z"/>
	</g>
</svg>